<svg version="1.0" xmlns="http://www.w3.org/2000/svg"
     width="4rem" height="4rem" viewBox="0 0 187.000000 186.000000"
     preserveAspectRatio="xMidYMid meet">

    <defs>
        <linearGradient id="gradient-fill" x1="0%" y1="0%" x2="100%" y2="100%">
            <stop offset="10%" style="stop-color:#000092;stop-opacity:1" />
            <stop offset="35%" style="stop-color:#000052;stop-opacity:1" />
            <stop offset="90%" style="stop-color:#000092;stop-opacity:1" />
        </linearGradient>
    </defs>

    <g transform="translate(0.000000,186.000000) scale(0.100000,-0.100000)"
       fill="url(#gradient-fill)" stroke="#fff" stroke-width="5">
        <path d="M840 1813 c-44 -6 -50 -15 -50 -79 0 -57 -8 -67 -63 -82 -50 -14 -64
-8 -88 40 -26 51 -43 56 -95 28 -39 -20 -43 -26 -37 -49 3 -14 12 -38 19 -53
17 -34 11 -50 -31 -82 -43 -33 -64 -33 -110 4 -21 17 -41 30 -46 30 -4 0 -23
-17 -43 -37 -32 -34 -34 -39 -21 -62 7 -15 22 -35 34 -45 29 -27 26 -55 -12
-100 l-34 -39 -42 16 c-65 26 -76 23 -99 -30 l-21 -48 23 -20 c13 -11 38 -28
56 -38 29 -15 32 -21 26 -48 -14 -71 -27 -84 -88 -89 -31 -3 -58 -7 -61 -10
-2 -3 -7 -26 -9 -52 -6 -57 1 -66 65 -74 56 -8 64 -17 67 -69 4 -62 3 -64 -56
-90 -52 -23 -56 -27 -51 -53 17 -82 29 -91 97 -72 47 13 63 6 83 -35 26 -54
21 -74 -24 -116 l-41 -38 32 -45 c17 -25 34 -46 38 -46 4 0 25 11 47 25 53 33
75 31 113 -8 37 -38 39 -55 12 -99 -29 -47 -25 -62 22 -93 l41 -27 43 46 c24
25 49 46 56 46 7 0 33 -9 57 -20 l44 -20 -7 -58 c-3 -31 -2 -62 2 -69 10 -15
94 -35 105 -24 4 4 16 30 25 57 l18 49 53 3 c64 4 77 -6 85 -63 9 -59 25 -70
84 -59 l47 9 5 65 5 65 43 14 c50 15 88 9 97 -18 3 -11 15 -31 26 -45 l20 -26
50 25 c45 23 49 28 43 53 -4 15 -13 39 -21 55 -16 33 -10 48 37 82 43 32 57
31 100 -5 44 -39 61 -38 99 6 31 35 31 35 14 65 -10 17 -26 35 -35 40 -25 14
-22 48 8 93 24 35 29 37 60 32 114 -20 102 -23 124 29 23 55 20 63 -39 90 -49
21 -54 34 -40 90 14 57 23 63 89 67 l55 3 3 54 c4 61 -4 71 -59 71 -52 0 -71
25 -67 90 3 52 4 53 43 67 62 21 68 31 54 88 l-12 48 -68 -7 -69 -6 -20 40
c-29 56 -25 76 21 120 l41 39 -28 40 c-16 22 -35 41 -43 41 -7 0 -35 -12 -61
-27 l-48 -27 -35 30 c-48 39 -54 65 -28 107 29 47 26 68 -12 95 -46 31 -61 28
-97 -18 -36 -46 -54 -49 -112 -19 l-40 21 6 57 c8 66 2 75 -57 86 -45 9 -64
-4 -73 -50 -10 -53 -34 -69 -90 -59 -50 10 -54 14 -75 84 -15 47 -20 50 -79
43z m653 -400 c3 -5 2 -34 0 -65 -5 -55 -6 -57 -37 -60 -31 -3 -31 -4 -34 -65
l-3 -63 -469 0 -470 0 0 60 0 60 -35 0 -35 0 0 63 c0 35 3 67 7 70 9 10 1071
9 1076 0z m-73 -618 l0 -255 35 0 35 0 0 -70 0 -70 -542 2 -543 3 0 60 0 60
35 5 35 5 3 258 2 257 470 0 470 0 0 -255z"/>
        <path d="M420 1350 l0 -60 34 0 c34 0 35 -1 39 -47 l3 -48 2 47 2 48 348 3
347 2 -382 3 -383 2 0 50 0 50 528 3 527 2 -532 3 -533 2 0 -60z"/>
        <path d="M440 1350 l0 -40 513 2 512 3 3 38 3 37 -515 0 -516 0 0 -40z"/>
        <path d="M878 1283 l-368 -3 0 -45 0 -45 443 -3 442 -2 -453 0 c-248 0 -452
-3 -452 -7 0 -5 206 -8 459 -8 l459 0 -5 48 c-7 74 -5 72 -85 70 -40 -2 -238
-4 -440 -5z"/>
        <path d="M490 1033 c0 -5 207 -8 460 -8 253 0 460 3 460 8 0 4 -207 7 -460 7
-253 0 -460 -3 -460 -7z"/>
        <path d="M510 970 l0 -50 303 0 c167 0 365 3 440 7 l137 6 0 44 0 43 -440 0
-440 0 0 -50z"/>
        <path d="M490 908 c0 -5 57 -9 128 -10 l127 -2 -117 -3 -118 -4 0 -34 0 -35
440 0 440 0 0 40 0 40 -292 1 c-161 1 -364 4 -451 7 -86 4 -157 4 -157 0z"/>
        <path d="M1270 914 c59 -8 140 -8 140 -1 0 4 -37 6 -82 6 -46 -1 -72 -3 -58
-5z"/>
        <path d="M1402 853 l-2 -43 -455 0 c-250 0 -455 -3 -455 -7 0 -5 178 -7 395
-5 l395 3 0 -135 0 -136 -247 -2 -248 -3 348 -5 c191 -3 347 -2 347 3 0 4 -16
7 -35 7 l-35 0 -3 183 c-1 100 -3 163 -5 140z m-2 -188 l0 -135 -55 0 -55 0 0
135 0 135 55 0 55 0 0 -135z"/>
        <path d="M1300 665 l0 -125 45 0 45 0 0 125 0 125 -45 0 -45 0 0 -125z"/>
        <path d="M510 659 l0 -130 43 3 42 3 3 128 3 127 -46 0 -45 0 0 -131z"/>
        <path d="M630 660 l0 -130 73 2 c68 1 69 1 22 7 l-50 6 0 90 0 90 273 3 272 2
0 -95 c0 -95 0 -95 25 -95 l25 0 0 125 0 125 -320 0 -320 0 0 -130z"/>
        <path d="M703 713 c9 -2 23 -2 30 0 6 3 -1 5 -18 5 -16 0 -22 -2 -12 -5z"/>
        <path d="M778 703 c-70 -3 -78 -6 -78 -24 0 -19 7 -19 248 -17 239 3 247 4
247 23 0 19 -7 20 -170 21 -93 0 -205 -1 -247 -3z"/>
        <path d="M684 630 l1 -75 264 -3 c238 -2 263 -1 257 14 -3 8 -6 27 -6 40 l0
24 -250 0 -250 0 0 -30 0 -30 253 -3 252 -2 -257 -3 -258 -2 0 40 0 40 53 2
52 1 -50 6 c-42 5 -50 10 -56 31 -3 14 -5 -9 -5 -50z"/>
        <path d="M437 503 c-4 -3 -7 -21 -7 -40 l0 -33 515 0 515 0 0 40 0 40 -508 0
c-280 0 -512 -3 -515 -7z"/>
        <path d="M945 420 l-530 -5 533 -3 c349 -1 532 1 532 8 0 6 -1 9 -2 8 -2 -2
-241 -5 -533 -8z"/>
    </g>
</svg>